# xmcd
#
# Track frame offsets:
#	150
#	15204
#	31458
#	47562
#	62390
#	75394
#	89173
#	101032
#	114921
#	128899
#	145867
#	157018
#	170458
#	188740
#
# Disc length: 2650 seconds
# Revision: 0
# Processed by: cddbd v1.5.2PL0 Copyright (c) Steve Scherf et al.
# Submitted via: dBpowerAMP V12.0
#
DISCID=ab0a580e
DTITLE=Burleson, Joseph "Wade" - Drive
DYEAR=2009
DGENRE=Pop/Rock
TTITLE0=I Wanna Drive
TTITLE1=If She Found Someone New
TTITLE2=I've Been There And Done That
TTITLE3=Born To Ride
TTITLE4=Satisfaction Guaranteed
TTITLE5=Young Wild And Free
TTITLE6=Blue Jeans Cowgirl Boots And Lipstick
TTITLE7=I'm Into You
TTITLE8=When The Sun Goes Down
TTITLE9=Wishful Thinkin Livin Blind
TTITLE10=All She Wants To Do
TTITLE11=Let's Do Some Twistin
TTITLE12=Your Everything I Dreamed Of
TTITLE13=Hey Bartender
EXTD=
EXTT0=
EXTT1=
EXTT2=
EXTT3=
EXTT4=
EXTT5=
EXTT6=
EXTT7=
EXTT8=
EXTT9=
EXTT10=
EXTT11=
EXTT12=
EXTT13=
PLAYORDER=
